# xmcd
#
# Track frame offsets:
#	150
#	20469
#	29240
#	48219
#	59202
#	75932
#	92127
#	110931
#	123792
#	136086
#	147338
#	171240
#	204456
#	220236
#
# Disc length: 3053 seconds
#
# Revision: 0
# Processed by: cddbd v1.5.2PL0 Copyright (c) Steve Scherf et al.
# Submitted via: dBpowerAMP V4.0
#
DISCID=cd0beb0e
DTITLE=Crosstown Traffic - Stop Blues
DYEAR=2002
DGENRE=Blues
TTITLE0=01.Miseria Este pajaro ha volado
TTITLE1=02.Estoy tirado
TTITLE2=03.Have a nice trip
TTITLE3=04.Vas a perder tu amor
TTITLE4=05.Stop Blues
TTITLE5=06.Cordoba Blues(i)
TTITLE6=07.El blues del adios
TTITLE7=08.Milanesa verde
TTITLE8=09.Gata negra
TTITLE9=10.Matchbox
TTITLE10=11.Tendencia suicida
TTITLE11=12.Blues nº9.
TTITLE12=13.Cordoba blues (II)
TTITLE13=14.Aqui, alla y en todas partes
EXTD=
EXTT0=
EXTT1=
EXTT2=
EXTT3=
EXTT4=
EXTT5=
EXTT6=
EXTT7=
EXTT8=
EXTT9=
EXTT10=
EXTT11=
EXTT12=
EXTT13=
PLAYORDER=
